<svg width="64" height="64" viewBox="0 0 64 64" fill="none" xmlns="http://www.w3.org/2000/svg">
<g clip-path="url(#clip0_2_171)">
<path d="M35.456 0.184001C31.632 -0.771999 28.08 2.12 27.824 5.864C27.536 10.068 26.904 13.928 26.112 16.224C25.612 17.664 24.196 20.276 21.952 22.78C19.724 25.272 16.824 27.492 13.428 28.42C10.74 29.152 8 31.48 8 34.88V50.884C8 54.264 10.728 56.74 13.792 57.064C18.072 57.52 20.048 58.724 22.064 59.956L22.256 60.076C23.344 60.736 24.568 61.468 26.136 62.012C27.724 62.556 29.58 62.88 32 62.88H46C49.748 62.88 52.396 60.972 53.736 58.624C54.3836 57.516 54.7336 56.2593 54.752 54.976C54.752 54.368 54.66 53.728 54.444 53.12C55.248 52.068 55.964 50.808 56.396 49.516C56.836 48.196 57.084 46.468 56.412 44.92C56.688 44.4 56.892 43.844 57.048 43.308C57.356 42.228 57.5 41.036 57.5 39.88C57.5 38.728 57.356 37.54 57.048 36.456C56.9081 35.9577 56.7233 35.473 56.496 35.008C57.1964 34.0115 57.647 32.8612 57.8099 31.6542C57.9728 30.4471 57.8432 29.2185 57.432 28.072C56.608 25.704 54.704 23.672 52.632 22.984C49.244 21.856 45.42 21.88 42.568 22.14C41.9759 22.1933 41.3851 22.26 40.796 22.34C42.1836 16.3975 42.0985 10.2061 40.548 4.304C40.2782 3.35836 39.7608 2.50194 39.0491 1.82332C38.3374 1.1447 37.4574 0.66851 36.5 0.444001L35.456 0.184001ZM46 58.884H32C29.96 58.884 28.548 58.608 27.44 58.228C26.316 57.84 25.416 57.316 24.336 56.656L24.176 56.56C21.956 55.204 19.384 53.636 14.216 53.088C12.884 52.944 12 51.928 12 50.888V34.88C12 33.864 12.904 32.708 14.48 32.28C18.86 31.08 22.388 28.296 24.936 25.448C27.476 22.608 29.192 19.548 29.888 17.536C30.86 14.736 31.516 10.464 31.816 6.136C31.916 4.688 33.256 3.76 34.484 4.064L35.532 4.328C36.172 4.488 36.564 4.9 36.684 5.348C38.3175 11.5721 38.1161 18.1358 36.104 24.248C35.9901 24.5879 35.9697 24.9523 36.0449 25.3028C36.1201 25.6534 36.2881 25.9772 36.5314 26.2406C36.7747 26.5039 37.0843 26.697 37.4278 26.7996C37.7713 26.9023 38.1361 26.9107 38.484 26.824L38.496 26.82L38.552 26.808L38.784 26.752C40.1518 26.4615 41.5355 26.2518 42.928 26.124C45.58 25.884 48.756 25.908 51.368 26.78C52.068 27.012 53.168 27.98 53.648 29.38C54.076 30.612 53.996 32.06 52.584 33.468L51.172 34.88L52.584 36.296C52.756 36.468 53.004 36.86 53.2 37.556C53.392 38.224 53.5 39.036 53.5 39.88C53.5 40.728 53.392 41.536 53.2 42.208C53 42.904 52.756 43.296 52.584 43.468L51.172 44.88L52.584 46.296C52.772 46.484 53.02 47.004 52.604 48.248C52.1705 49.4543 51.4815 50.5527 50.584 51.468L49.172 52.88L50.584 54.296C50.608 54.316 50.748 54.496 50.748 54.976C50.7303 55.5627 50.5637 56.1353 50.264 56.64C49.604 57.792 48.252 58.88 46 58.88V58.884Z" fill="#22577A"/>
</g>
<defs>
<clipPath id="clip0_2_171">
<rect width="64" height="64" fill="white"/>
</clipPath>
</defs>
</svg>
