<svg width="11" height="12" viewBox="0 0 11 12" fill="none" xmlns="http://www.w3.org/2000/svg">
<path d="M10.5228 7.34598C10.2262 7.21633 9.88081 7.35172 9.75124 7.64828C9.09487 9.15047 7.61175 10.1211 5.9728 10.1211C3.70042 10.1211 1.85171 8.27238 1.85171 6C1.85171 3.72762 3.70042 1.87891 5.9728 1.87891C7.60229 1.87891 9.08198 2.84176 9.74241 4.33188C9.87354 4.62773 10.2196 4.76137 10.5155 4.63016C10.8114 4.49906 10.9449 4.15293 10.8138 3.85707C9.96569 1.94348 8.0655 0.707031 5.97284 0.707031C3.05428 0.707031 0.679871 3.08145 0.679871 6C0.679871 8.91855 3.05428 11.293 5.97284 11.293C8.07757 11.293 9.98221 10.0465 10.8251 8.1175C10.9547 7.82098 10.8193 7.47555 10.5228 7.34598Z" fill="white" fill-opacity="0.8"/>
</svg>
