<svg width="62" height="12" viewBox="0 0 62 12" fill="none" xmlns="http://www.w3.org/2000/svg">
<path d="M0.777771 0.444458V6.4889C0.777771 7.71479 1.26475 8.89047 2.13159 9.75731C2.99842 10.6241 4.1741 11.1111 5.39999 11.1111H56.4933C57.7192 11.1111 58.8949 10.6241 59.7617 9.75731C60.6286 8.89047 61.1155 7.71479 61.1155 6.4889V0.444458H0.777771ZM57.6667 6.4889C57.6667 6.7718 57.5543 7.04311 57.3542 7.24315C57.1542 7.44319 56.8829 7.55557 56.6 7.55557H5.32888C5.04598 7.55557 4.77467 7.44319 4.57464 7.24315C4.3746 7.04311 4.26222 6.7718 4.26222 6.4889V3.16446H21.9511C22.1734 3.68887 22.5443 4.13669 23.0183 4.45262C23.4922 4.76856 24.0482 4.93877 24.6178 4.94224H37.2933C37.8629 4.93877 38.4189 4.76856 38.8928 4.45262C39.3667 4.13669 39.7377 3.68887 39.96 3.16446H57.6667V6.4889Z" fill="#22577A"/>
</svg>
