<svg width="50" height="63" viewBox="0 0 50 63" fill="none" xmlns="http://www.w3.org/2000/svg">
<path d="M27.456 0.184001C23.632 -0.771999 20.08 2.12 19.824 5.864C19.536 10.068 18.904 13.928 18.112 16.224C17.612 17.664 16.196 20.276 13.952 22.78C11.724 25.272 8.824 27.492 5.428 28.42C2.74 29.152 0 31.48 0 34.88V50.884C0 54.264 2.728 56.74 5.792 57.064C10.072 57.52 12.048 58.724 14.064 59.956L14.256 60.076C15.344 60.736 16.568 61.468 18.136 62.012C19.724 62.556 21.58 62.88 24 62.88H38C41.748 62.88 44.396 60.972 45.736 58.624C46.3836 57.516 46.7336 56.2593 46.752 54.976C46.752 54.368 46.66 53.728 46.444 53.12C47.248 52.068 47.964 50.808 48.396 49.516C48.836 48.196 49.084 46.468 48.412 44.92C48.688 44.4 48.892 43.844 49.048 43.308C49.356 42.228 49.5 41.036 49.5 39.88C49.5 38.728 49.356 37.54 49.048 36.456C48.9081 35.9577 48.7233 35.473 48.496 35.008C49.1964 34.0115 49.647 32.8612 49.8099 31.6542C49.9728 30.4471 49.8432 29.2185 49.432 28.072C48.608 25.704 46.704 23.672 44.632 22.984C41.244 21.856 37.42 21.88 34.568 22.14C33.9759 22.1933 33.3851 22.26 32.796 22.34C34.1836 16.3975 34.0985 10.2061 32.548 4.304C32.2782 3.35836 31.7608 2.50194 31.0491 1.82332C30.3374 1.1447 29.4574 0.66851 28.5 0.444001L27.456 0.184001ZM38 58.884H24C21.96 58.884 20.548 58.608 19.44 58.228C18.316 57.84 17.416 57.316 16.336 56.656L16.176 56.56C13.956 55.204 11.384 53.636 6.216 53.088C4.884 52.944 4 51.928 4 50.888V34.88C4 33.864 4.904 32.708 6.48 32.28C10.86 31.08 14.388 28.296 16.936 25.448C19.476 22.608 21.192 19.548 21.888 17.536C22.86 14.736 23.516 10.464 23.816 6.136C23.916 4.688 25.256 3.76 26.484 4.064L27.532 4.328C28.172 4.488 28.564 4.9 28.684 5.348C30.3175 11.5721 30.1161 18.1358 28.104 24.248C27.9901 24.5879 27.9697 24.9523 28.0449 25.3028C28.1201 25.6534 28.2881 25.9772 28.5314 26.2406C28.7747 26.5039 29.0843 26.697 29.4278 26.7996C29.7713 26.9023 30.1361 26.9107 30.484 26.824L30.496 26.82L30.552 26.808L30.784 26.752C32.1518 26.4615 33.5355 26.2518 34.928 26.124C37.58 25.884 40.756 25.908 43.368 26.78C44.068 27.012 45.168 27.98 45.648 29.38C46.076 30.612 45.996 32.06 44.584 33.468L43.172 34.88L44.584 36.296C44.756 36.468 45.004 36.86 45.2 37.556C45.392 38.224 45.5 39.036 45.5 39.88C45.5 40.728 45.392 41.536 45.2 42.208C45 42.904 44.756 43.296 44.584 43.468L43.172 44.88L44.584 46.296C44.772 46.484 45.02 47.004 44.604 48.248C44.1705 49.4543 43.4815 50.5527 42.584 51.468L41.172 52.88L42.584 54.296C42.608 54.316 42.748 54.496 42.748 54.976C42.7303 55.5627 42.5637 56.1353 42.264 56.64C41.604 57.792 40.252 58.88 38 58.88V58.884Z" fill="#22577A"/>
</svg>
