<svg width="50" height="54" viewBox="0 0 50 54" fill="none" xmlns="http://www.w3.org/2000/svg">
<path d="M30.2827 4.92001C30.3389 4.84924 30.409 4.79066 30.4886 4.74781C30.5682 4.70496 30.6556 4.67875 30.7457 4.67077C30.8357 4.66279 30.9265 4.6732 31.0124 4.70138C31.0982 4.72956 31.1775 4.77491 31.2453 4.83468L33.7013 7.00001L25.9707 16.6667H31.0933L36.7093 9.64801L41.1147 13.5333C41.2449 13.6485 41.3251 13.8099 41.338 13.9832C41.351 14.1566 41.2957 14.3282 41.184 14.4613L39.344 16.6667H44.528C45.1701 15.7266 45.4465 14.5842 45.305 13.4546C45.1636 12.325 44.6141 11.286 43.76 10.5333L33.8933 1.83201C33.4173 1.41282 32.8609 1.09505 32.258 0.898123C31.6551 0.701193 31.0184 0.62923 30.3867 0.686631C29.7551 0.744031 29.1417 0.92959 28.5842 1.23197C28.0267 1.53436 27.5366 1.94722 27.144 2.44534L15.936 16.6667H21.0293L30.2827 4.92001V4.92001ZM35.3333 35.3333C34.8029 35.3333 34.2942 35.5441 33.9191 35.9191C33.544 36.2942 33.3333 36.8029 33.3333 37.3333C33.3333 37.8638 33.544 38.3725 33.9191 38.7476C34.2942 39.1226 34.8029 39.3333 35.3333 39.3333H40.6667C41.1971 39.3333 41.7058 39.1226 42.0809 38.7476C42.456 38.3725 42.6667 37.8638 42.6667 37.3333C42.6667 36.8029 42.456 36.2942 42.0809 35.9191C41.7058 35.5441 41.1971 35.3333 40.6667 35.3333H35.3333ZM4 17.3333C4 16.8029 4.21071 16.2942 4.58579 15.9191C4.96086 15.5441 5.46957 15.3333 6 15.3333H14.3413L17.52 11.3333H6C4.4087 11.3333 2.88258 11.9655 1.75736 13.0907C0.632141 14.2159 0 15.742 0 17.3333V45.3333C0 47.6319 0.913092 49.8363 2.53841 51.4616C4.16372 53.0869 6.36812 54 8.66667 54H40.6667C42.9652 54 45.1696 53.0869 46.7949 51.4616C48.4202 49.8363 49.3333 47.6319 49.3333 45.3333V28C49.3333 25.7015 48.4202 23.4971 46.7949 21.8718C45.1696 20.2464 42.9652 19.3333 40.6667 19.3333H6C5.46957 19.3333 4.96086 19.1226 4.58579 18.7476C4.21071 18.3725 4 17.8638 4 17.3333ZM4 45.3333V22.992C4.62667 23.2133 5.29867 23.3333 6 23.3333H40.6667C43.2427 23.3333 45.3333 25.424 45.3333 28V45.3333C45.3333 46.571 44.8417 47.758 43.9665 48.6332C43.0913 49.5083 41.9043 50 40.6667 50H8.66667C7.42899 50 6.242 49.5083 5.36683 48.6332C4.49167 47.758 4 46.571 4 45.3333Z" fill="#22577A"/>
</svg>
